<?xml version="1.0" encoding="UTF-8"?>
<svg id="_图层_2" data-name="图层 2" xmlns="http://www.w3.org/2000/svg" viewBox="0 0 507 507">
  <defs>
    <style>
      .cls-1 {
        fill: #1f7bbd;
      }

      .cls-2 {
        fill: #424243;
      }

      .cls-3 {
        fill: #cfcfd0;
      }

      .cls-4 {
        fill: #c9c9c9;
      }

      .cls-5 {
        fill: #1a7ac1;
      }

      .cls-6 {
        fill: #434445;
      }

      .cls-7 {
        fill: #424244;
      }

      .cls-8 {
        fill: #1878c0;
      }

      .cls-9 {
        fill: #1a79be;
      }

      .cls-10 {
        fill: #227dc0;
      }
    </style>
  </defs>
  <g id="_图层_1-2" data-name="图层 1">
    <g>
      <path class="cls-10" d="M507,158v1l-73,23c-4.55-1.27-6.82-2.8-6-8,17.27-3.81,34.43-8.21,51.81-11.69,8.97-1.8,18.03-4.27,27.19-4.31Z"/>
      <path class="cls-1" d="M55,278c-.47,6.46,5.84,6.86,5,12-20.06.83-40.28,4.58-60,8v-2c18.4-5.74,36.72-11.89,55-18Z"/>
      <path class="cls-3" d="M396,0v1c-60.65.08-121.35-.11-182,0V0h182Z"/>
      <path class="cls-4" d="M214,0v1c-33.65.06-67.35-.04-101,0V0h101Z"/>
      <path class="cls-8" d="M336,196l-1.01,4.99c8.16,1.69,16.02,1.37,13.01,12.01h-1c-1.57-2.31-4.54-2.1-7-1.99v1.98s4,1.01,4,1.01c-1.79.67-4,2.25-6,3-.35-8.9-12.82-4.73-10,3-1.11.42-2.14.67-3,1,.19-2.32-3.5-5.21-5.35-4.84l-6.22,4.83,1.57,4c-1.65.63-3.32,1.35-5,2l-7-2v5c-53.77,21.01-107.17,43.51-159.36,68.14-7.31,3.45-20.53,11.89-27.25,13.77-1.95.54-1.13-.26-1.49-1.28-.7-1.98-.76-4.31-1.69-6.33-6.99-15.29-38.99-14.88-53.21-14.29.84-5.14-5.47-5.54-5-12,83.2-27.82,166.92-53.29,252-75l4,1v-2c9.06-2.36,16.84-3.95,25-6Z"/>
      <path class="cls-9" d="M428,174c-.82,5.2,1.45,6.73,6,8-9.28,5.13-20.28,6.62-30,10,.02-2.65.85-3.37-2.43-2.92-4.38.59-5.51,2.52-.57,3.92-17.64,6.16-34.95,14.63-53,20,3.02-10.64-4.85-10.32-13.01-12.01l1.01-4.99c18.93-4.75,37.89-9.53,57-14l2-1c10.97-2.55,22.02-4.58,33-7Z"/>
      <path class="cls-9" d="M325,221c-3.15,1.2-6.68,2.72-10,4l-1.57-4,6.22-4.83c1.85-.37,5.54,2.52,5.35,4.84Z"/>
      <path class="cls-5" d="M338,217c-2.83,1.06-7.18,1.93-10,3-2.82-7.73,9.65-11.9,10-3Z"/>
      <path class="cls-9" d="M310,227c-2.22.86-4.56,2.05-7,3v-5s7,2,7,2Z"/>
      <path class="cls-10" d="M401,193c-4.94-1.4-3.81-3.33.57-3.92,3.28-.44,2.44.27,2.43,2.92-1,.35-2.01.65-3,1Z"/>
      <path class="cls-9" d="M347,213c-.79,1.08-2.19.7-3,1l-4-1.01v-1.98c2.46-.1,5.43-.32,7,1.99Z"/>
      <path class="cls-7" d="M395,507h-3c-5.93-3.35-11.17-7.8-16.48-12.02-36.76-29.3-74.45-64.91-112.05-91.95-9.03-6.5-13.44-5.27-21.95,1.01-40.31,29.73-77.68,68.41-118.05,97.95-2.75,2.01-5.52,3.42-8.48,5.02h-4c-4.68-2.3-11-9.14-11-14.5v-188.5c11.93,2.14,6.05,16.82,2,23.99l43.98-20.5-18.98,52.51h49l24.46-67.07,102.44.17,23.6,66.9h48.5l-46.07-130.43,78.06-28.57c-.73,5.29.85,10.38,1.06,15.45,3.73,89.75-2.92,182.07-.01,272.08-.73,9.3-3.53,15.86-13.04,18.46Z"/>
      <path class="cls-2" d="M113,1c33.65-.04,67.35.06,101,0,60.65-.11,121.35.08,182,0,7.82,1.05,11.28,9.51,11.99,16.51,2.5,24.74-2.64,52.81.06,78.03l-.15,73.36-95.81,22-40.2-111.78-43.23-.16-55.18,151.03-73.48,23.02V15.5c0-5.44,6.48-15.2,13-14.5Z"/>
      <polygon class="cls-6" points="268 203.99 229 213.99 250.5 153 268 203.99"/>
      <path class="cls-9" d="M311,202v2s-4-1-4-1c1.32-.34,2.69-.66,4-1Z"/>
      <path class="cls-10" d="M395,181l-2,1c.11-.03.67-.69,2-1Z"/>
    </g>
  </g>
</svg>